<svg width="87" height="77" viewBox="0 0 87 77" fill="none" xmlns="http://www.w3.org/2000/svg">
<path d="M63.5281 45.403C62.8112 45.403 62.1103 45.1913 61.5142 44.7947C60.9181 44.3981 60.4534 43.8344 60.1791 43.1749C59.9047 42.5153 59.8329 41.7896 59.9728 41.0895C60.1127 40.3893 60.4579 39.7462 60.9649 39.2414C61.4718 38.7366 62.1177 38.3929 62.8209 38.2536C63.5241 38.1143 64.253 38.1858 64.9154 38.459C65.5777 38.7322 66.1439 39.1948 66.5422 39.7884C66.9405 40.3819 67.1531 41.0798 67.1531 41.7936C67.1531 42.7509 66.7712 43.669 66.0914 44.3458C65.4116 45.0227 64.4895 45.403 63.5281 45.403ZM23.487 45.403C22.77 45.403 22.0692 45.1913 21.473 44.7947C20.8769 44.3981 20.4123 43.8344 20.1379 43.1749C19.8635 42.5153 19.7918 41.7896 19.9316 41.0895C20.0715 40.3893 20.4168 39.7462 20.9237 39.2414C21.4307 38.7366 22.0766 38.3929 22.7798 38.2536C23.483 38.1143 24.2118 38.1858 24.8742 38.459C25.5366 38.7322 26.1027 39.1948 26.5011 39.7884C26.8994 40.3819 27.112 41.0798 27.112 41.7936C27.112 42.7509 26.7301 43.669 26.0502 44.3458C25.3704 45.0227 24.4484 45.403 23.487 45.403ZM64.8271 23.6716L72.062 11.1891C72.1713 11.018 72.2446 10.8265 72.2777 10.6264C72.3108 10.4263 72.3028 10.2215 72.2544 10.0245C72.2059 9.82752 72.1179 9.64231 71.9957 9.48004C71.8735 9.31777 71.7196 9.18179 71.5432 9.08029C71.3668 8.97878 71.1717 8.91385 70.9694 8.88939C70.7672 8.86493 70.5621 8.88146 70.3665 8.93797C70.1708 8.99448 69.9887 9.08982 69.831 9.21824C69.6733 9.34665 69.5434 9.5055 69.449 9.68523L62.1234 22.3331C56.2662 19.7174 49.9194 18.3652 43.5 18.3652C37.0806 18.3652 30.7338 19.7174 24.8766 22.3331L17.551 9.70027C17.4566 9.52054 17.3267 9.36169 17.169 9.23327C17.0113 9.10486 16.8292 9.00952 16.6335 8.95301C16.4379 8.8965 16.2328 8.87997 16.0306 8.90443C15.8283 8.92889 15.6332 8.99382 15.4568 9.09533C15.2804 9.19683 15.1265 9.33281 15.0043 9.49508C14.8821 9.65735 14.7941 9.84256 14.7456 10.0396C14.6972 10.2366 14.6892 10.4413 14.7223 10.6414C14.7554 10.8416 14.8287 11.033 14.938 11.2042L22.1729 23.6866C9.74219 30.4091 1.23854 42.9516 0 57.7501H87C85.7615 42.9366 77.2578 30.4091 64.812 23.6716" fill="white"/>
</svg>
