<svg width="39" height="48" viewBox="0 0 39 48" fill="none" xmlns="http://www.w3.org/2000/svg">
<path fill-rule="evenodd" clip-rule="evenodd" d="M9.58057 6.00631L2.52295 10.4227C3.49962 11.1672 4.45304 11.9495 5.3832 12.7697L19.1496 4.15142L32.9161 12.7697C33.8462 11.9495 34.7996 11.1672 35.7763 10.4227L28.7187 6.00631L19.1496 0L9.58057 6.00631ZM19.1496 17.6782C15.6848 17.6782 12.3246 17.2366 9.10386 16.3912C10.348 17.7413 11.5339 19.1672 12.6385 20.6562C14.7662 20.9842 16.9405 21.1483 19.1496 21.1483C21.3588 21.1483 23.533 20.9842 25.6608 20.6562C26.7653 19.1672 27.9513 17.7413 29.1954 16.3912C25.9747 17.2366 22.6145 17.6782 19.1496 17.6782Z" fill="#1B93D2"/>
<path fill-rule="evenodd" clip-rule="evenodd" d="M3.30208 23.2808C2.25565 22.1325 1.1627 21.0347 0 20.0126V23.9874V35.9874L9.56906 41.9811L13.9641 44.7319C13.6385 43.0536 13.2083 41.4133 12.7084 39.8107L3.29046 33.918V23.2808H3.30208ZM34.9974 19.2429C28.8932 25.1987 24.3703 33.0347 22.1844 41.918C22.1844 41.9306 22.1728 41.9432 22.1728 41.9558C21.8007 43.4953 21.4868 45.0599 21.2659 46.6625L20.3473 47.2429L19.1498 48L17.9522 47.2429L17.0336 46.6625C16.8011 45.0599 16.4988 43.4953 16.1267 41.9558C16.1267 41.9432 16.1151 41.9306 16.1151 41.918C13.9408 33.0473 9.41791 25.2114 3.30208 19.2429C2.25565 18.2208 1.15108 17.2492 0.0116271 16.3281V12.0883C1.15108 12.9085 2.24402 13.7666 3.31371 14.6877C9.72021 20.2145 14.7431 27.5584 17.7196 36C18.2661 37.5521 18.7428 39.142 19.1498 40.7697C19.5567 39.142 20.0334 37.5521 20.5799 36C23.5564 27.5584 28.5793 20.2145 34.9858 14.6877C36.0439 13.7666 37.1484 12.8959 38.2879 12.0883V16.3281C37.1484 17.2492 36.0439 18.2208 34.9974 19.2429ZM34.9974 33.918L25.5795 39.8107C25.0795 41.4133 24.661 43.0536 24.3238 44.7319L28.7188 41.9811L38.2879 35.9874V23.9874V20.0126C37.1368 21.0347 36.0322 22.1199 34.9858 23.2808V33.918H34.9974Z" fill="white"/>
</svg>
