<svg width="63" height="85" viewBox="0 0 63 85" fill="none" xmlns="http://www.w3.org/2000/svg">
<path d="M45.8581 51.9456C47.4939 50.8333 49.7639 49.8704 49.7639 49.8704C49.7639 49.8704 43.3044 51.0325 36.8783 51.5638C29.0167 52.2112 20.571 52.344 16.3314 51.7796C6.29999 50.4515 21.8395 46.7826 21.8395 46.7826C21.8395 46.7826 15.814 46.3842 8.38639 49.9368C-0.376495 54.1536 30.085 56.0793 45.8581 51.9456ZM31.6039 46.6166C28.4325 39.5278 17.7335 33.3023 31.6039 22.4118C48.9126 8.83191 40.0329 0 40.0329 0C43.6215 14.0281 27.4144 18.2781 21.5557 26.9938C17.5666 32.9537 23.5086 39.3452 31.6039 46.6166ZM50.732 17.365C50.7487 17.365 21.489 24.6364 35.4595 40.6401C39.5822 45.3549 34.3746 49.6048 34.3746 49.6048C34.3746 49.6048 44.84 44.226 40.0329 37.5024C35.543 31.2271 32.1046 28.1061 50.732 17.365ZM49.7138 62.2716C49.6226 62.4298 49.5103 62.575 49.38 62.7033C70.7948 57.1086 62.9165 42.9643 52.6848 46.5502C52.1321 46.7519 51.6545 47.1168 51.3162 47.5961C51.9136 47.381 52.5277 47.2145 53.1522 47.098C58.3265 46.0189 65.754 53.9876 49.7138 62.2716ZM57.5921 72.6143C57.5921 72.6143 60.0123 74.5898 54.9382 76.1338C45.2739 79.039 14.7457 79.9189 6.2666 76.25C3.21211 74.9385 8.9372 73.0957 10.7398 72.7139C12.6093 72.3155 13.6942 72.3819 13.6942 72.3819C10.3059 70.0079 -8.22136 77.0468 4.28035 79.0556C38.3638 84.5672 66.4384 76.582 57.5921 72.6143ZM20.2705 65.7413C7.13455 69.3936 28.2656 76.9306 44.9902 69.8086C43.3591 69.1784 41.7845 68.412 40.2833 67.5177C32.8223 68.9288 29.3672 69.0284 22.5906 68.2647C16.999 67.6339 20.2705 65.7413 20.2705 65.7413ZM50.2813 81.8778C37.1453 84.3348 20.9382 84.0526 11.3407 82.4755C11.3407 82.4589 13.3103 84.0858 23.4252 84.7333C38.8145 85.7127 62.4492 84.1854 63 76.9472C63 76.9472 61.9318 79.6865 50.2813 81.8778ZM43.0039 58.6027C33.1227 60.4953 27.3977 60.4455 20.1704 59.6984C14.5788 59.1174 18.2342 56.428 18.2342 56.428C3.74623 61.2092 26.2794 66.6212 46.5258 60.7277C45.2173 60.268 44.0183 59.5446 43.0039 58.6027Z" fill="white"/>
</svg>
