<svg width="60" height="48" viewBox="0 0 60 48" fill="none" xmlns="http://www.w3.org/2000/svg">
<g clip-path="url(#clip0_101_201)">
<path d="M32.8033 22.1531H26.6064V16.5844H32.8033V22.1531ZM32.8033 3H26.6064V8.69062H32.8033V3ZM40.1346 16.575H33.9377V22.1437H40.1346V16.575ZM25.4814 9.81562H19.2846V15.45H25.4814V9.81562ZM32.8033 9.81562H26.6064V15.45H32.8033V9.81562ZM58.7533 19.1906C57.4033 18.2812 54.2908 17.9531 51.9002 18.4031C51.5908 16.1531 50.3346 14.1938 48.0471 12.4313L46.7346 11.5594L45.8627 12.8719C44.1377 15.4781 43.6689 19.7719 45.5158 22.6031C44.7002 23.0438 43.0971 23.6438 40.9783 23.6063H0.22518C-0.590445 28.3687 0.76893 34.5562 4.35018 38.8031C7.82831 42.9188 13.0408 45.0094 19.8564 45.0094C34.6127 45.0094 45.5346 38.2125 50.6439 25.8656C52.6502 25.9031 56.9814 25.875 59.2033 21.6281C59.3439 21.3937 59.8221 20.3906 60.0002 20.025L58.7533 19.1906ZM10.8377 16.575H4.65018V22.1437H10.8471V16.575H10.8377ZM18.1596 16.575H11.9627V22.1437H18.1596V16.575ZM25.4814 16.575H19.2846V22.1437H25.4814V16.575ZM18.1596 9.81562H11.9627V15.45H18.1596V9.81562Z" fill="white"/>
</g>
<defs>
<clipPath id="clip0_101_201">
<rect width="60" height="48" fill="white"/>
</clipPath>
</defs>
</svg>
