<svg width="42" height="48" viewBox="0 0 42 48" fill="none" xmlns="http://www.w3.org/2000/svg">
<g clip-path="url(#clip0_101_203)">
<path d="M20.6998 11.5594C20.7936 11.6063 20.8686 11.7188 20.9811 11.7188C21.0842 11.7188 21.2436 11.6813 21.2529 11.5782C21.2717 11.4469 21.0748 11.3625 20.9529 11.3063C20.7936 11.2407 20.5873 11.2125 20.4373 11.2969C20.3998 11.3157 20.3623 11.3625 20.3811 11.4C20.4092 11.5219 20.5967 11.5032 20.6998 11.5594ZM18.6467 11.7188C18.7592 11.7188 18.8342 11.6063 18.9279 11.5594C19.0311 11.5032 19.2186 11.5219 19.2561 11.4094C19.2748 11.3719 19.2373 11.325 19.1998 11.3063C19.0498 11.2219 18.8436 11.25 18.6842 11.3157C18.5623 11.3719 18.3654 11.4563 18.3842 11.5875C18.3936 11.6813 18.5529 11.7282 18.6467 11.7188ZM39.3748 37.8563C39.0373 37.4813 38.8779 36.7688 38.6998 36.0094C38.5311 35.25 38.3342 34.4344 37.7154 33.9094C37.5936 33.8063 37.4717 33.7125 37.3404 33.6375C37.2186 33.5625 37.0873 33.4969 36.9561 33.45C37.8186 30.8906 37.4811 28.3407 36.6092 26.0344C35.5404 23.2125 33.6748 20.7469 32.2498 19.0594C30.6467 17.0438 29.0904 15.1313 29.1186 12.3094C29.1654 8.00628 29.5967 0.00940211 22.0123 2.71101e-05C12.4123 -0.0187229 14.8123 9.69378 14.7092 12.675C14.5498 14.8688 14.1092 16.5938 12.5998 18.7407C10.8279 20.85 8.33419 24.2532 7.15294 27.8063C6.59044 29.4844 6.32794 31.1907 6.57169 32.8032C5.96231 33.3469 5.50294 34.1813 5.01544 34.6969C4.62169 35.1 4.04981 35.25 3.42169 35.475C2.79356 35.7 2.10919 36.0375 1.68731 36.8344C1.49044 37.2 1.42481 37.5938 1.42481 37.9969C1.42481 38.3625 1.48106 38.7375 1.53731 39.1031C1.64981 39.8625 1.77169 40.575 1.61231 41.0532C1.12481 42.4031 1.05919 43.3407 1.40606 44.025C1.76231 44.7094 2.47481 45.0094 3.29044 45.1782C4.91231 45.5157 7.11544 45.4313 8.84981 46.35C10.7061 47.325 12.5904 47.6719 14.0904 47.325C15.1779 47.0813 16.0686 46.425 16.5186 45.4313C17.6904 45.4219 18.9842 44.925 21.0467 44.8125C22.4436 44.7 24.1967 45.3094 26.2123 45.1969C26.2686 45.4125 26.3436 45.6282 26.4467 45.825V45.8344C27.2248 47.4 28.6779 48.1125 30.2248 47.9907C31.7811 47.8688 33.4217 46.9594 34.7529 45.375C36.0279 43.8375 38.1279 43.2 39.5248 42.3563C40.2186 41.9344 40.7811 41.4094 40.8279 40.6407C40.8654 39.8719 40.4154 39.0188 39.3748 37.8563ZM20.9717 8.1844C21.8904 6.10315 24.1779 6.14065 25.0967 8.1469C25.7061 9.47815 25.4342 11.0438 24.6936 11.9344C24.5436 11.8594 24.1404 11.6907 23.5123 11.475C23.6154 11.3625 23.8029 11.2219 23.8779 11.0438C24.3279 9.93753 23.8592 8.51253 23.0248 8.4844C22.3404 8.43753 21.7217 9.4969 21.9186 10.6407C21.5342 10.4532 21.0373 10.3125 20.6998 10.2282C20.6061 9.58128 20.6717 8.8594 20.9717 8.1844ZM17.1561 7.10628C18.1029 7.10628 19.1061 8.43753 18.9467 10.2469C18.6186 10.3407 18.2811 10.4813 17.9904 10.6782C18.1029 9.84378 17.6811 8.79378 17.0904 8.84065C16.3029 8.90628 16.1717 10.8282 16.9217 11.475C17.0154 11.55 17.0998 11.4563 16.3686 11.9907C14.9061 10.6219 15.3842 7.10628 17.1561 7.10628ZM15.8811 12.7969C16.4623 12.3657 17.1561 11.8594 17.2029 11.8125C17.6436 11.4 18.4686 10.4813 19.8186 10.4813C20.4842 10.4813 21.2811 10.6969 22.2467 11.3157C22.8373 11.7 23.3061 11.7282 24.3654 12.1875C25.1529 12.5157 25.6498 13.0969 25.3498 13.8938C25.1061 14.5594 24.3186 15.2438 23.2217 15.5907C22.1811 15.9282 21.3654 17.0907 19.6404 16.9875C19.2748 16.9688 18.9842 16.8938 18.7404 16.7907C17.9904 16.4625 17.5967 15.8157 16.8654 15.3844C16.0592 14.9344 15.6279 14.4094 15.4873 13.95C15.3561 13.4907 15.4873 13.1063 15.8811 12.7969ZM16.1904 44.1094C15.9373 47.4 12.0748 47.3344 9.13106 45.7969C6.32794 44.3157 2.69981 45.1875 1.95919 43.7438C1.73419 43.3032 1.73419 42.5532 2.20294 41.2688V41.25C2.42794 40.5375 2.25919 39.75 2.14669 39.0094C2.03419 38.2782 1.97794 37.6031 2.23106 37.1344C2.55919 36.5063 3.02794 36.2813 3.61856 36.075C4.58419 35.7281 4.72481 35.7563 5.45606 35.1469C5.97169 34.6125 6.34669 33.9375 6.79669 33.4594C7.27481 32.9438 7.73419 32.7 8.45606 32.8125C9.21544 32.925 9.87169 33.45 10.5092 34.3125L12.3467 37.65C13.2373 39.5157 16.3873 42.1875 16.1904 44.1094ZM16.0592 41.6813C15.6748 41.0625 15.1592 40.4063 14.7092 39.8438C15.3748 39.8438 16.0404 39.6375 16.2748 39.0094C16.4904 38.4282 16.2748 37.6125 15.5811 36.675C14.3154 34.9688 11.9904 33.6282 11.9904 33.6282C10.7248 32.8407 10.0123 31.875 9.68419 30.825C9.35606 29.775 9.40294 28.6407 9.65606 27.525C10.1436 25.3782 11.3998 23.2875 12.2061 21.975C12.4217 21.8157 12.2811 22.275 11.3904 23.925C10.5936 25.4344 9.10294 28.9219 11.1467 31.65C11.2029 29.7094 11.6623 27.7313 12.4404 25.8844C13.5654 23.3157 15.9373 18.8625 16.1248 15.3188C16.2279 15.3938 16.5561 15.6188 16.7061 15.7032C17.1373 15.9563 17.4654 16.3313 17.8873 16.6688C19.0498 17.6063 20.5592 17.5313 21.8623 16.7813C22.4436 16.4532 22.9123 16.0782 23.3529 15.9375C24.2811 15.6469 25.0217 15.1313 25.4436 14.5313C26.1654 17.3813 27.8529 21.4969 28.9311 23.5032C29.5029 24.5719 30.6467 26.8313 31.1436 29.5594C31.4529 29.55 31.7998 29.5969 32.1654 29.6907C33.4592 26.3438 31.0686 22.7344 29.9811 21.7313C29.5404 21.3 29.5217 21.1125 29.7373 21.1219C30.9186 22.1719 32.4748 24.2813 33.0373 26.6531C33.2998 27.7407 33.3467 28.875 33.0748 30C34.6123 30.6375 36.4404 31.6782 35.9529 33.2625C35.7467 33.2532 35.6529 33.2625 35.5592 33.2625C35.8592 32.3157 35.1936 31.6125 33.4217 30.8157C31.5842 30.0094 30.0467 30.0094 29.8311 31.9875C28.6967 32.3813 28.1154 33.3657 27.8248 34.5469C27.5623 35.5969 27.4873 36.8625 27.4123 38.2875C27.3654 39.0094 27.0748 39.975 26.7748 41.0063C23.7654 43.1531 19.5842 44.0907 16.0592 41.6813ZM40.1904 40.6031C40.1061 42.1782 36.3279 42.4688 34.2654 44.9625C33.0279 46.4344 31.5092 47.25 30.1779 47.3531C28.8467 47.4563 27.6936 46.9031 27.0186 45.5438C26.5779 44.5032 26.7936 43.3782 27.1217 42.1407C27.4686 40.8094 27.9842 39.4407 28.0498 38.3344C28.1248 36.9094 28.2092 35.6625 28.4436 34.7063C28.6873 33.7407 29.0623 33.0938 29.7279 32.7281C29.7561 32.7094 29.7936 32.7 29.8217 32.6813C29.8967 33.9188 30.5061 35.175 31.5842 35.4469C32.7654 35.7563 34.4623 34.7438 35.1842 33.9188C36.0279 33.8906 36.6561 33.8344 37.3029 34.3969C38.2311 35.1938 37.9686 37.2375 38.9061 38.2969C39.8998 39.3844 40.2186 40.125 40.1904 40.6031ZM16.2467 13.9407C16.4342 14.1188 16.6873 14.3625 16.9967 14.6063C17.6154 15.0938 18.4779 15.6 19.5561 15.6C20.6436 15.6 21.6654 15.0469 22.5373 14.5875C22.9967 14.3438 23.5592 13.9313 23.9248 13.6125C24.2904 13.2938 24.4779 13.0219 24.2154 12.9938C23.9529 12.9657 23.9717 13.2375 23.6529 13.4719C23.2404 13.7719 22.7436 14.1657 22.3498 14.3907C21.6561 14.7844 20.5217 15.3469 19.5467 15.3469C18.5717 15.3469 17.7936 14.8969 17.2123 14.4375C16.9217 14.2032 16.6779 13.9688 16.4904 13.7907C16.3498 13.6594 16.3123 13.3594 16.0873 13.3313C15.9561 13.3219 15.9186 13.6782 16.2467 13.9407Z" fill="white"/>
</g>
<defs>
<clipPath id="clip0_101_203">
<rect width="42" height="48" fill="white"/>
</clipPath>
</defs>
</svg>
