<svg width="60" height="38" viewBox="0 0 60 38" fill="none" xmlns="http://www.w3.org/2000/svg">
<path d="M29.5619 37.375C29.3656 37.375 29.1693 37.3187 28.9918 37.225L27.1973 36.1562C26.9263 36.0062 27.0571 35.95 27.1506 35.9219C27.5057 35.8 27.5805 35.7719 27.9637 35.5469C28.0011 35.5281 28.0572 35.5375 28.0945 35.5562L29.4778 36.3812C29.5245 36.4094 29.5993 36.4094 29.646 36.3812L35.0481 33.25C35.0948 33.2219 35.1322 33.1656 35.1322 33.1V26.8469C35.1322 26.7812 35.1042 26.725 35.0481 26.6969L29.646 23.575C29.5993 23.5469 29.5338 23.5469 29.4778 23.575L24.0757 26.6969C24.0196 26.725 23.9916 26.7906 23.9916 26.8469V33.1C23.9916 33.1562 24.029 33.2125 24.0757 33.2406L25.5524 34.0937C26.3562 34.4969 26.8515 34.0187 26.8515 33.55V27.3719C26.8515 27.2875 26.9169 27.2125 27.0104 27.2125H27.6927C27.7768 27.2125 27.8515 27.2781 27.8515 27.3719V33.55C27.8515 34.6281 27.2721 35.2375 26.2533 35.2375C25.9449 35.2375 25.6926 35.2375 25.0103 34.9L23.5897 34.0844C23.2439 33.8781 23.0196 33.5031 23.0196 33.1V26.8469C23.0196 26.4437 23.2345 26.0594 23.5897 25.8625L28.9918 22.7312C29.3376 22.5344 29.7862 22.5344 30.1227 22.7312L35.5247 25.8625C35.8705 26.0687 36.0948 26.4437 36.0948 26.8469V33.1C36.0948 33.5031 35.8799 33.8875 35.5247 34.0844L30.1227 37.2156C29.9638 37.3187 29.7675 37.375 29.5619 37.375ZM33.9265 31.2062C33.9265 30.0344 33.1415 29.725 31.4778 29.5C29.7955 29.275 29.6273 29.1625 29.6273 28.7687C29.6273 28.4406 29.7675 28.0094 31.0105 28.0094C32.1227 28.0094 32.534 28.2531 32.7022 29.0031C32.7209 29.0781 32.777 29.125 32.8517 29.125H33.5527C33.5994 29.125 33.6368 29.1062 33.6648 29.0781C33.6929 29.0406 33.7116 29.0031 33.7022 28.9562C33.5901 27.6625 32.7396 27.0625 31.0105 27.0625C29.4684 27.0625 28.5525 27.7187 28.5525 28.8062C28.5525 29.9969 29.4684 30.3156 30.9451 30.4656C32.7115 30.6437 32.8517 30.8969 32.8517 31.2437C32.8517 31.8531 32.3657 32.1062 31.2255 32.1062C29.7955 32.1062 29.4778 31.75 29.375 31.0375C29.3656 30.9625 29.3002 30.9062 29.2161 30.9062H28.5151C28.431 30.9062 28.3562 30.9719 28.3562 31.0656C28.3562 31.975 28.8516 33.0625 31.2162 33.0625C32.9452 33.0625 33.9265 32.3875 33.9265 31.2062ZM39.0202 26.5094C39.0202 27.0812 38.5529 27.55 37.9828 27.55C37.4127 27.55 36.9453 27.0812 36.9453 26.5094C36.9453 25.9187 37.4313 25.4687 37.9828 25.4687C38.5435 25.4594 39.0202 25.9187 39.0202 26.5094ZM38.852 26.5094C38.852 26.0219 38.4594 25.6375 37.9734 25.6375C37.4968 25.6375 37.1042 26.0219 37.1042 26.5094C37.1042 26.9969 37.4968 27.3906 37.9734 27.3906C38.4594 27.3812 38.852 26.9875 38.852 26.5094ZM38.4314 27.0906H38.1884C38.179 27.0344 38.1417 26.7344 38.1417 26.725C38.123 26.6594 38.1043 26.6219 38.0202 26.6219H37.8145V27.0906H37.5902V25.9187H37.9921C38.1323 25.9187 38.4033 25.9187 38.4033 26.2281C38.4033 26.4437 38.2632 26.4906 38.179 26.5187C38.3379 26.5281 38.3473 26.6312 38.3753 26.7812C38.3847 26.875 38.4033 27.0344 38.4314 27.0906ZM38.1697 26.2656C38.1697 26.1062 38.0575 26.1062 38.0015 26.1062H37.8145V26.4344H37.9921C38.1417 26.4344 38.1697 26.3312 38.1697 26.2656ZM12.8323 12.9062C12.8323 12.6531 12.7014 12.4281 12.4865 12.3062L6.75727 8.99686C6.66381 8.94061 6.55165 8.91248 6.4395 8.90311H6.38342C6.27127 8.90311 6.16846 8.94061 6.06565 8.99686L0.345808 12.3062C0.130846 12.4281 0 12.6625 0 12.9062L0.00934615 21.8125C0.00934615 21.9344 0.0747692 22.0469 0.177577 22.1125C0.280385 22.1781 0.411231 22.1781 0.523385 22.1125L3.92538 20.1531C4.14035 20.0219 4.27119 19.7969 4.27119 19.5531V15.3906C4.27119 15.1469 4.40204 14.9125 4.617 14.7906L6.06565 13.9562C6.17781 13.8906 6.28996 13.8625 6.41146 13.8625C6.53296 13.8625 6.65446 13.8906 6.75727 13.9562L8.20592 14.7906C8.42089 14.9125 8.55173 15.1469 8.55173 15.3906V19.5531C8.55173 19.7969 8.68258 20.0312 8.89754 20.1531L12.2995 22.1125C12.4023 22.1781 12.5425 22.1781 12.6453 22.1125C12.7482 22.0562 12.8136 21.9344 12.8136 21.8125L12.8323 12.9062ZM44.1606 3.18436V19.7219C44.1606 19.9656 44.0297 20.2 43.8148 20.3219L38.0856 23.6406C37.8706 23.7625 37.6089 23.7625 37.394 23.6406L31.6648 20.3219C31.4498 20.2 31.319 19.9656 31.319 19.7219V13.0844C31.319 12.8406 31.4498 12.6062 31.6648 12.4844L37.394 9.16561C37.6089 9.04373 37.8706 9.04373 38.0856 9.16561L39.5155 9.99061C39.6744 10.0844 39.88 9.96248 39.88 9.78436V0.971856C39.88 0.709356 40.1604 0.540606 40.3941 0.671856L43.8054 2.58436C44.0204 2.69686 44.1606 2.93123 44.1606 3.18436ZM39.8613 15.2687C39.8613 15.2031 39.824 15.1469 39.7772 15.1187L37.8145 13.975C37.7585 13.9469 37.693 13.9469 37.637 13.975L35.6743 15.1187C35.6182 15.1469 35.5902 15.2031 35.5902 15.2687V17.5469C35.5902 17.6125 35.6275 17.6687 35.6743 17.6969L37.637 18.8312C37.693 18.8594 37.7585 18.8594 37.8052 18.8312L39.7679 17.6969C39.824 17.6687 39.852 17.6125 39.852 17.5469V15.2687H39.8613ZM59.4696 15.2031C59.6845 15.0812 59.8154 14.8469 59.8154 14.6031V13C59.8154 12.7562 59.6845 12.5219 59.4696 12.4L53.7778 9.08123C53.5628 8.95936 53.3011 8.95936 53.0862 9.08123L47.357 12.4C47.142 12.5219 47.0112 12.7562 47.0112 13V19.6375C47.0112 19.8906 47.142 20.1156 47.357 20.2375L53.0488 23.4906C53.2544 23.6125 53.5161 23.6125 53.731 23.4906L57.1704 21.5687C57.4041 21.4375 57.4041 21.1 57.1704 20.9687L51.4038 17.65C51.2917 17.5844 51.2263 17.4719 51.2263 17.35V15.2687C51.2263 15.1469 51.2917 15.0344 51.4038 14.9687L53.1983 13.9281C53.3011 13.8625 53.4413 13.8625 53.5441 13.9281L55.3386 14.9687C55.4414 15.0344 55.5162 15.1469 55.5162 15.2687V16.9C55.5162 17.1625 55.8059 17.3312 56.0395 17.2L59.4696 15.2031ZM52.245 15.5312C52.2076 15.5594 52.1796 15.5969 52.1796 15.6437V16.9187C52.1796 16.9656 52.2076 17.0125 52.245 17.0312L53.3478 17.6687C53.3852 17.6969 53.4413 17.6969 53.4787 17.6687L54.5815 17.0312C54.6189 17.0031 54.647 16.9656 54.647 16.9187V15.6437C54.647 15.5969 54.6189 15.55 54.5815 15.5312L53.4787 14.8937C53.4413 14.8656 53.3852 14.8656 53.3478 14.8937L52.245 15.5312ZM28.4871 19.6094V13.0094C28.4871 12.7656 28.3375 12.5312 28.1226 12.4094L22.4121 9.10936C22.2158 8.99686 21.9448 8.97811 21.7205 9.10936L16.01 12.4094C15.795 12.5312 15.6455 12.7562 15.6455 13.0094V19.6094C15.6455 19.8719 15.823 20.0969 16.0193 20.2094L21.7392 23.5094C21.9635 23.6406 22.2252 23.6312 22.4308 23.5094L28.1319 20.2094C28.3002 20.1156 28.4217 19.9562 28.4684 19.7687C28.4777 19.7219 28.4871 19.6656 28.4871 19.6094ZM21.5429 7.89998L21.4681 7.94686H21.5709L21.5429 7.89998ZM28.6647 20.1062L28.6273 20.0406V20.125L28.6647 20.1062Z" fill="white"/>
</svg>
