<svg width="42" height="48" viewBox="0 0 42 48" fill="none" xmlns="http://www.w3.org/2000/svg">
<g clip-path="url(#clip0_101_199)">
<path d="M41.2313 18.7969C40.5094 15.9 39.1407 13.7156 36.2251 13.7156H32.4657V18.1594C32.4657 21.6094 29.5407 24.5156 26.2032 24.5156H16.1907C13.4532 24.5156 11.1844 26.8594 11.1844 29.6062V39.15C11.1844 41.8687 13.5469 43.4625 16.1907 44.2406C19.3594 45.1687 22.4063 45.3375 26.2032 44.2406C28.7251 43.5094 31.2094 42.0375 31.2094 39.15V35.3344H21.2063V34.0594H36.2251C39.1407 34.0594 40.2188 32.025 41.2313 28.9781C42.2813 25.8375 42.2344 22.8188 41.2313 18.7969ZM26.8313 37.875C27.8719 37.875 28.7157 38.7281 28.7157 39.7781C28.7157 40.8375 27.8719 41.6906 26.8313 41.6906C25.8001 41.6906 24.9469 40.8281 24.9469 39.7781C24.9563 38.7187 25.8001 37.875 26.8313 37.875ZM15.7313 23.2594H25.7438C28.5282 23.2594 30.7501 20.9625 30.7501 18.1687V8.61562C30.7501 5.89687 28.4626 3.8625 25.7438 3.40312C22.3876 2.85 18.7407 2.87812 15.7313 3.4125C11.4938 4.1625 10.7251 5.72812 10.7251 8.625V12.4406H20.7469V13.7156H6.9657C4.05007 13.7156 1.50007 15.4688 0.703195 18.7969C-0.215555 22.6125 -0.253055 24.9937 0.703195 28.9781C1.4157 31.9406 3.11257 34.0594 6.0282 34.0594H9.46882V29.4844C9.46882 26.175 12.3282 23.2594 15.7313 23.2594ZM15.1032 9.89062C14.0626 9.89062 13.2188 9.0375 13.2188 7.9875C13.2282 6.92812 14.0626 6.075 15.1032 6.075C16.1344 6.075 16.9876 6.9375 16.9876 7.9875C16.9876 9.0375 16.1438 9.89062 15.1032 9.89062Z" fill="white"/>
</g>
<defs>
<clipPath id="clip0_101_199">
<rect width="42" height="48" fill="white"/>
</clipPath>
</defs>
</svg>
