<svg width="65" height="64" viewBox="0 0 65 64" fill="none" xmlns="http://www.w3.org/2000/svg">
<circle cx="32.9763" cy="32" r="32" fill="url(#paint0_linear_101_210)"/>
<rect x="18.9272" y="40.2109" width="14.261" height="26.4847" rx="2" transform="rotate(-58.0004 18.9272 40.2109)" fill="url(#paint1_linear_101_210)"/>
<rect x="18.6106" y="35.501" width="14.261" height="26.4847" rx="2" transform="rotate(-58.0004 18.6106 35.501)" fill="url(#paint2_linear_101_210)"/>
<rect x="18.5547" y="30.1594" width="14.261" height="26.4847" rx="2" transform="rotate(-58.0004 18.5547 30.1594)" fill="url(#paint3_linear_101_210)"/>
<path d="M24.2554 18.8457C23.7031 17.8891 24.0308 16.6659 24.9874 16.1136L33.8737 10.9831C34.8303 10.4309 36.0535 10.7586 36.6058 11.7152L47.8481 31.1875C48.4004 32.1441 48.0726 33.3673 47.1161 33.9196L38.2298 39.0501C37.2732 39.6024 36.05 39.2746 35.4977 38.318L24.2554 18.8457Z" fill="url(#paint4_linear_101_210)"/>
<defs>
<linearGradient id="paint0_linear_101_210" x1="32.9763" y1="0" x2="32.9763" y2="64" gradientUnits="userSpaceOnUse">
<stop stop-color="#2F889B"/>
<stop offset="1" stop-color="#014251"/>
</linearGradient>
<linearGradient id="paint1_linear_101_210" x1="26.0577" y1="40.2109" x2="26.0577" y2="66.6956" gradientUnits="userSpaceOnUse">
<stop stop-color="#183F54"/>
<stop offset="1" stop-color="#11242F"/>
</linearGradient>
<linearGradient id="paint2_linear_101_210" x1="25.7411" y1="35.501" x2="25.7411" y2="61.9857" gradientUnits="userSpaceOnUse">
<stop stop-color="#31718F"/>
<stop offset="1" stop-color="#0D405B"/>
</linearGradient>
<linearGradient id="paint3_linear_101_210" x1="25.6852" y1="30.1594" x2="25.6852" y2="56.6441" gradientUnits="userSpaceOnUse">
<stop stop-color="#79CCEF"/>
<stop offset="1" stop-color="#18688F"/>
</linearGradient>
<linearGradient id="paint4_linear_101_210" x1="21.9881" y1="30.5967" x2="35.2305" y2="53.5331" gradientUnits="userSpaceOnUse">
<stop stop-color="#BCE5F7"/>
<stop offset="1" stop-color="#3D7CA4"/>
</linearGradient>
</defs>
</svg>
