<svg width="100" height="100" viewBox="0 0 100 100" fill="none" xmlns="http://www.w3.org/2000/svg">
<rect x="12" y="17" width="57" height="57" rx="8" fill="url(#paint0_linear_167_11)"/>
<rect x="23" y="35" width="27" height="4" rx="2" fill="url(#paint1_linear_167_11)"/>
<rect x="23" y="26" width="18" height="4" rx="2" fill="url(#paint2_linear_167_11)"/>
<rect x="23" y="62" width="18" height="4" rx="2" fill="url(#paint3_linear_167_11)"/>
<rect x="23" y="53" width="27" height="4" rx="2" fill="url(#paint4_linear_167_11)"/>
<rect x="23" y="44" width="33" height="4" rx="2" fill="url(#paint5_linear_167_11)"/>
<rect x="30" y="26" width="57" height="57" rx="8" fill="url(#paint6_linear_167_11)"/>
<rect x="41" y="44" width="27" height="4" rx="2" fill="url(#paint7_linear_167_11)"/>
<rect x="41" y="35" width="18" height="4" rx="2" fill="url(#paint8_linear_167_11)"/>
<rect x="41" y="71" width="18" height="4" rx="2" fill="url(#paint9_linear_167_11)"/>
<rect x="41" y="62" width="27" height="4" rx="2" fill="url(#paint10_linear_167_11)"/>
<rect x="41" y="53" width="33" height="4" rx="2" fill="url(#paint11_linear_167_11)"/>
<defs>
<linearGradient id="paint0_linear_167_11" x1="40.5" y1="17" x2="40.5" y2="74" gradientUnits="userSpaceOnUse">
<stop stop-color="#413F3F"/>
<stop offset="1" stop-color="#2E2D2D"/>
</linearGradient>
<linearGradient id="paint1_linear_167_11" x1="22.1818" y1="35.1" x2="56.1364" y2="35.1" gradientUnits="userSpaceOnUse">
<stop stop-color="#818181"/>
<stop offset="0.734375" stop-color="white"/>
</linearGradient>
<linearGradient id="paint2_linear_167_11" x1="22.4545" y1="26.1" x2="45.0909" y2="26.1" gradientUnits="userSpaceOnUse">
<stop stop-color="#818181"/>
<stop offset="0.734375" stop-color="white"/>
</linearGradient>
<linearGradient id="paint3_linear_167_11" x1="22.4545" y1="62.1" x2="45.0909" y2="62.1" gradientUnits="userSpaceOnUse">
<stop stop-color="#818181"/>
<stop offset="0.734375" stop-color="white"/>
</linearGradient>
<linearGradient id="paint4_linear_167_11" x1="22.1818" y1="53.1" x2="56.1364" y2="53.1" gradientUnits="userSpaceOnUse">
<stop stop-color="#818181"/>
<stop offset="0.734375" stop-color="white"/>
</linearGradient>
<linearGradient id="paint5_linear_167_11" x1="22" y1="44.1" x2="63.5" y2="44.1" gradientUnits="userSpaceOnUse">
<stop stop-color="#818181"/>
<stop offset="0.734375" stop-color="white"/>
</linearGradient>
<linearGradient id="paint6_linear_167_11" x1="58.5" y1="26" x2="58.5" y2="83" gradientUnits="userSpaceOnUse">
<stop stop-color="#3D90B4"/>
<stop offset="1" stop-color="#004A69"/>
</linearGradient>
<linearGradient id="paint7_linear_167_11" x1="41.4091" y1="45.8" x2="69.2273" y2="45.8" gradientUnits="userSpaceOnUse">
<stop stop-color="#CDFFF9"/>
<stop offset="0.53125" stop-color="white"/>
<stop offset="1" stop-color="#C6FFF8"/>
</linearGradient>
<linearGradient id="paint8_linear_167_11" x1="41.2727" y1="36.8" x2="59.8182" y2="36.8" gradientUnits="userSpaceOnUse">
<stop stop-color="#CDFFF9"/>
<stop offset="0.53125" stop-color="white"/>
<stop offset="1" stop-color="#C6FFF8"/>
</linearGradient>
<linearGradient id="paint9_linear_167_11" x1="41.2727" y1="72.8" x2="59.8182" y2="72.8" gradientUnits="userSpaceOnUse">
<stop stop-color="#CDFFF9"/>
<stop offset="0.53125" stop-color="white"/>
<stop offset="1" stop-color="#C6FFF8"/>
</linearGradient>
<linearGradient id="paint10_linear_167_11" x1="41.4091" y1="63.8" x2="69.2273" y2="63.8" gradientUnits="userSpaceOnUse">
<stop stop-color="#CDFFF9"/>
<stop offset="0.53125" stop-color="white"/>
<stop offset="1" stop-color="#C6FFF8"/>
</linearGradient>
<linearGradient id="paint11_linear_167_11" x1="41.5" y1="54.8" x2="75.5" y2="54.8" gradientUnits="userSpaceOnUse">
<stop stop-color="#CDFFF9"/>
<stop offset="0.53125" stop-color="white"/>
<stop offset="1" stop-color="#C6FFF8"/>
</linearGradient>
</defs>
</svg>
